<svg width="24" height="19" viewBox="0 0 24 19" fill="none" xmlns="http://www.w3.org/2000/svg">
<path d="M22.7562 9.77355L20.863 8.8637L19.8032 5.80625C19.6543 5.3753 19.3679 5.00043 18.9848 4.73488C18.6017 4.46932 18.1413 4.32658 17.669 4.32692H15V2.16346C15 0.970432 13.9907 0 12.75 0H2.25C1.00925 0 0 0.970432 0 2.16346V15.1442C0 15.9397 0.673 16.5865 1.5 16.5865H3.8565C4.19175 17.8272 5.356 18.75 6.75 18.75C8.144 18.75 9.308 17.8272 9.6435 16.5865H15.8565C16.1917 17.8272 17.356 18.75 18.75 18.75C20.144 18.75 21.308 17.8272 21.6435 16.5865H22.5C23.327 16.5865 24 15.9397 24 15.1442V11.7086C24.0014 11.3066 23.8856 10.9122 23.6657 10.5702C23.4459 10.2282 23.1308 9.9522 22.7562 9.77355ZM17.669 5.76923C17.992 5.76923 18.2785 5.96754 18.381 6.2625L19.2097 8.65384H15V5.76923H17.669ZM6.75 17.3077C5.923 17.3077 5.25 16.6608 5.25 15.8654C5.25 15.0699 5.923 14.4231 6.75 14.4231C7.577 14.4231 8.25 15.0699 8.25 15.8654C8.25 16.6608 7.577 17.3077 6.75 17.3077ZM13.5 15.1442H9.6435C9.30825 13.9036 8.144 12.9808 6.75 12.9808C5.356 12.9808 4.192 13.9036 3.8565 15.1442H1.5V2.16346C1.5 1.76586 1.83625 1.44231 2.25 1.44231H12.75C13.1637 1.44231 13.5 1.76586 13.5 2.16346V15.1442ZM18.75 17.3077C17.923 17.3077 17.25 16.6608 17.25 15.8654C17.25 15.0699 17.923 14.4231 18.75 14.4231C19.577 14.4231 20.25 15.0699 20.25 15.8654C20.25 16.6608 19.577 17.3077 18.75 17.3077ZM22.5 15.1442H21.6435C21.3082 13.9036 20.144 12.9808 18.75 12.9808C17.356 12.9808 16.192 13.9036 15.8565 15.1442H15V10.0961H20.0727L22.0855 11.0637C22.2103 11.1233 22.3153 11.2153 22.3885 11.3293C22.4618 11.4432 22.5004 11.5747 22.5 11.7086V15.1442Z" fill="#FBFDFF"/>
</svg>
