<svg width="24" height="24" viewBox="0 0 24 24" fill="none" xmlns="http://www.w3.org/2000/svg">
<path d="M24 12C24 18.6167 18.6167 24 12 24C5.38325 24 0 18.6167 0 12C0 11.5855 0.3355 11.25 0.75 11.25C1.1645 11.25 1.5 11.5855 1.5 12C1.5 17.7897 6.21025 22.5 12 22.5C17.7897 22.5 22.5 17.7897 22.5 12C22.5 6.21025 17.7897 1.5 12 1.5C9.20925 1.5 6.6185 2.58475 4.6695 4.5H7.5C7.9145 4.5 8.25 4.8355 8.25 5.25C8.25 5.6645 7.9145 6 7.5 6H3C2.5855 6 2.25 5.6645 2.25 5.25V0.75C2.25 0.3355 2.5855 0 3 0C3.4145 0 3.75 0.3355 3.75 0.75V3.3085C5.96275 1.1965 8.87025 0 12 0C18.6167 0 24 5.38325 24 12ZM18.75 9V15.75C18.75 16.0627 18.556 16.3425 18.2638 16.4525L12.2638 18.7025C12.0936 18.7655 11.9064 18.7655 11.7362 18.7025L5.73625 16.4525C5.59339 16.3987 5.47032 16.3027 5.38345 16.1772C5.29658 16.0517 5.25002 15.9026 5.25 15.75V9C5.25 8.68725 5.444 8.4075 5.73625 8.2975L11.7362 6.0475C11.9064 5.9845 12.0934 5.9845 12.2635 6.0475L18.2635 8.2975C18.4064 8.35121 18.5296 8.44723 18.6165 8.57275C18.7034 8.69827 18.75 8.84732 18.75 9ZM8.13575 9L12 10.4487L15.8643 9L12 7.55125L8.13575 9ZM6.75 15.23L11.25 16.9175V11.77L6.75 10.0825V15.23ZM17.25 15.23V10.0825L12.75 11.77V16.9175L17.25 15.23Z" fill="#FBFDFF"/>
</svg>
