<svg width="24" height="24" viewBox="0 0 24 24" fill="none" xmlns="http://www.w3.org/2000/svg">
<path d="M12.4805 24.48C11.642 24.48 11.0522 23.8507 10.5322 23.2965C10.2862 23.0342 9.94922 22.6747 9.76247 22.6247C9.55372 22.5697 9.08422 22.7097 8.70622 22.8225C7.99222 23.0362 7.18047 23.2802 6.47822 22.873C5.76622 22.4615 5.57147 21.6307 5.40022 20.8977C5.31172 20.5205 5.20172 20.0502 5.05597 19.9045C4.91022 19.7587 4.43997 19.649 4.06197 19.5602C3.32947 19.3882 2.49897 19.1932 2.08747 18.4822C1.68097 17.7785 1.92347 16.9682 2.13797 16.2535C2.25072 15.877 2.39147 15.4075 2.33572 15.1987C2.28597 15.0112 1.92622 14.6742 1.66397 14.4282C1.10972 13.9082 0.480469 13.3185 0.480469 12.48C0.480469 11.6415 1.10972 11.0517 1.66397 10.5317C1.92622 10.2857 2.28572 9.94873 2.33572 9.76198C2.39147 9.55248 2.25072 9.08298 2.13797 8.70573C1.92347 7.99098 1.68097 7.18073 2.08747 6.47773C2.49897 5.76573 3.32972 5.57098 4.06272 5.39973C4.43997 5.31123 4.91022 5.20123 5.05597 5.05548C5.20172 4.90973 5.31147 4.43948 5.40022 4.06148C5.57222 3.32898 5.76722 2.49848 6.47822 2.08698C7.18422 1.67973 7.99372 1.92373 8.70697 2.13748C9.08347 2.25023 9.55522 2.39248 9.76172 2.33523C9.94922 2.28548 10.2862 1.92573 10.5322 1.66348C11.0522 1.10923 11.642 0.47998 12.4805 0.47998C13.319 0.47998 13.9087 1.10923 14.4287 1.66348C14.6747 1.92573 15.0117 2.28523 15.1985 2.33523C15.4072 2.39023 15.8767 2.25023 16.2547 2.13748C16.9695 1.92373 17.7817 1.68048 18.4827 2.08698C19.1947 2.49848 19.3895 3.32923 19.5607 4.06223C19.6492 4.43948 19.7592 4.90973 19.905 5.05548C20.0507 5.20123 20.521 5.31098 20.899 5.39973C21.6315 5.57173 22.462 5.76673 22.8735 6.47773C23.28 7.18148 23.0375 7.99173 22.823 8.70648C22.7102 9.08298 22.5695 9.55248 22.6252 9.76123C22.675 9.94873 23.0347 10.2857 23.297 10.5317C23.8512 11.0517 24.4805 11.6415 24.4805 12.48C24.4805 13.3185 23.8512 13.9082 23.297 14.4282C23.0347 14.6742 22.6752 15.0112 22.6252 15.198C22.5695 15.4075 22.7102 15.877 22.823 16.2542C23.0375 16.969 23.28 17.7792 22.8735 18.4822C22.462 19.1942 21.6312 19.389 20.8982 19.5602C20.521 19.6487 20.0507 19.7587 19.905 19.9045C19.7592 20.0502 19.6495 20.5205 19.5607 20.8985C19.3887 21.631 19.1937 22.4615 18.4827 22.873C17.7775 23.281 16.9672 23.0362 16.254 22.8225C15.8775 22.7097 15.4057 22.5675 15.1992 22.6247C15.0117 22.6745 14.6747 23.0342 14.4287 23.2965C13.9087 23.8507 13.319 24.48 12.4805 24.48ZM9.65122 21.1137C9.81897 21.1137 9.98597 21.132 10.15 21.176C10.7497 21.3365 11.1952 21.811 11.6257 22.2702C11.8747 22.5355 12.2915 22.98 12.4805 22.98C12.6695 22.98 13.0862 22.5355 13.3352 22.2702C13.766 21.811 14.2112 21.3365 14.8117 21.176C15.4307 21.009 16.098 21.2097 16.6845 21.3855C17.001 21.48 17.5912 21.6602 17.7317 21.5745C17.8812 21.488 18.0232 20.8817 18.1002 20.5557C18.246 19.9347 18.3962 19.2915 18.8445 18.844C19.292 18.3957 19.935 18.2455 20.5562 18.0997C20.905 18.0177 21.4885 17.8815 21.5757 17.7305C21.6577 17.5892 21.4812 17.0002 21.386 16.6845C21.2102 16.0962 21.0102 15.4305 21.1765 14.8102C21.337 14.2105 21.8115 13.765 22.2707 13.3345C22.536 13.0857 22.9805 12.669 22.9805 12.48C22.9805 12.291 22.536 11.8742 22.2707 11.6252C21.8115 11.1945 21.337 10.7492 21.1765 10.1487C21.0102 9.52898 21.2102 8.86323 21.386 8.27598C21.4812 7.95948 21.6577 7.37148 21.575 7.22873C21.4885 7.07923 20.8822 6.93723 20.5562 6.86023C19.9352 6.71448 19.292 6.56423 18.8445 6.11598C18.3962 5.66848 18.246 5.02548 18.1002 4.40423C18.0182 4.05548 17.882 3.47198 17.731 3.38473C17.591 3.30498 17.0022 3.47998 16.685 3.57448C16.0975 3.75023 15.4317 3.95098 14.8107 3.78398C14.211 3.62348 13.7655 3.14898 13.335 2.68973C13.0862 2.42448 12.6695 1.97998 12.4805 1.97998C12.2915 1.97998 11.8747 2.42448 11.6257 2.68973C11.195 3.14898 10.7497 3.62348 10.1492 3.78398C9.53022 3.95098 8.86297 3.75023 8.27647 3.57448C7.95997 3.47998 7.37122 3.30123 7.22922 3.38548C7.07972 3.47198 6.93772 4.07823 6.86072 4.40423C6.71497 5.02523 6.56472 5.66848 6.11647 6.11598C5.66897 6.56423 5.02597 6.71448 4.40472 6.86023C4.05597 6.94223 3.47247 7.07848 3.38522 7.22948C3.30322 7.37073 3.47972 7.95973 3.57497 8.27548C3.75072 8.86373 3.95072 9.52948 3.78447 10.1497C3.62397 10.7495 3.14947 11.195 2.69022 11.6255C2.42497 11.8742 1.98047 12.291 1.98047 12.48C1.98047 12.669 2.42497 13.0857 2.69022 13.3347C3.14947 13.7655 3.62397 14.2107 3.78447 14.8112C3.95072 15.431 3.75072 16.0967 3.57497 16.684C3.47972 17.0005 3.30322 17.5885 3.38597 17.7312C3.47247 17.8807 4.07872 18.0227 4.40472 18.0997C5.02572 18.2455 5.66897 18.3957 6.11647 18.844C6.56472 19.2915 6.71497 19.9345 6.86072 20.5557C6.94272 20.9045 7.07897 21.488 7.22997 21.5752C7.37197 21.6572 7.95947 21.4807 8.27597 21.3855C8.70847 21.256 9.18322 21.1137 9.65122 21.1137ZM16.1887 18.48C16.0707 18.48 15.9522 18.4522 15.8437 18.3957L12.4805 16.6525L9.11722 18.3957C8.99313 18.4599 8.85358 18.4882 8.71428 18.4774C8.57498 18.4666 8.44147 18.4171 8.32879 18.3345C8.21611 18.2519 8.12874 18.1394 8.07652 18.0098C8.02429 17.8802 8.0093 17.7386 8.03322 17.601L8.67347 13.9235L5.96122 11.3177C5.75397 11.1192 5.67847 10.8205 5.76647 10.5472C5.85447 10.274 6.09022 10.0755 6.37447 10.0345L10.1317 9.49623L11.8097 6.14398C12.0647 5.63723 12.8967 5.63723 13.1515 6.14398L14.8302 9.49623L18.5867 10.0345C18.871 10.0755 19.1067 10.274 19.1947 10.5472C19.2827 10.8205 19.2072 11.1192 19 11.3177L16.2877 13.9235L16.928 17.601C16.9467 17.7088 16.9417 17.8194 16.9132 17.9251C16.8847 18.0307 16.8335 18.1289 16.763 18.2126C16.6926 18.2964 16.6047 18.3637 16.5055 18.4099C16.4063 18.4561 16.2982 18.48 16.1887 18.48ZM8.10872 11.3015L9.71197 12.8425C9.88937 13.0124 10.0222 13.2233 10.0989 13.4567C10.1755 13.6901 10.1936 13.9387 10.1515 14.1807L9.77072 16.3677L11.7907 15.321C12.004 15.2106 12.2406 15.153 12.4807 15.153C12.7208 15.153 12.9575 15.2106 13.1707 15.321L15.1907 16.3677L14.81 14.1815C14.7678 13.9393 14.7858 13.6904 14.8624 13.4568C14.9391 13.2232 15.072 13.0121 15.2495 12.842L16.8527 11.3017L14.6175 10.9817C14.3776 10.9475 14.1495 10.8555 13.9529 10.7138C13.7563 10.5721 13.5971 10.3848 13.4887 10.168L12.4805 8.15498L11.4727 10.1685C11.3642 10.3852 11.2048 10.5724 11.008 10.714C10.8113 10.8556 10.5832 10.9474 10.3432 10.9815L8.10872 11.3015Z" fill="#FBFDFF"/>
</svg>
