<svg width="24" height="19" fill="none" xmlns="http://www.w3.org/2000/svg"><path d="m22.756 9.774-1.893-.91-1.06-3.058a2.168 2.168 0 0 0-.818-1.071 2.309 2.309 0 0 0-1.316-.408H15V2.163C15 .97 13.99 0 12.75 0H2.25C1.01 0 0 .97 0 2.163v12.981c0 .796.673 1.443 1.5 1.443h2.357c.335 1.24 1.499 2.163 2.893 2.163 1.394 0 2.558-.923 2.893-2.163h6.213c.336 1.24 1.5 2.163 2.894 2.163 1.394 0 2.558-.923 2.893-2.163h.857c.827 0 1.5-.647 1.5-1.443V11.71a2.09 2.09 0 0 0-.334-1.139 2.209 2.209 0 0 0-.91-.796ZM17.67 5.769c.323 0 .61.199.712.494l.829 2.39H15V5.77h2.669ZM6.75 17.308c-.827 0-1.5-.647-1.5-1.443 0-.795.673-1.442 1.5-1.442s1.5.647 1.5 1.442c0 .796-.673 1.443-1.5 1.443Zm6.75-2.164H9.643c-.335-1.24-1.499-2.163-2.893-2.163-1.394 0-2.558.923-2.893 2.163H1.5V2.164c0-.398.336-.722.75-.722h10.5c.414 0 .75.324.75.721v12.981Zm5.25 2.164c-.827 0-1.5-.647-1.5-1.443 0-.795.673-1.442 1.5-1.442s1.5.647 1.5 1.442c0 .796-.673 1.443-1.5 1.443Zm3.75-2.164h-.857c-.335-1.24-1.499-2.163-2.893-2.163-1.394 0-2.558.923-2.893 2.163H15v-5.048h5.073l2.012.968c.125.06.23.151.303.265a.697.697 0 0 1 .112.38v3.435Z" fill="#FBFDFF"/></svg>