<svg width="24" height="24" fill="none" xmlns="http://www.w3.org/2000/svg"><path d="M24 12c0 6.617-5.383 12-12 12S0 18.617 0 12a.75.75 0 1 1 1.5 0c0 5.79 4.71 10.5 10.5 10.5S22.5 17.79 22.5 12 17.79 1.5 12 1.5c-2.79 0-5.381 1.085-7.33 3H7.5a.75.75 0 1 1 0 1.5H3a.75.75 0 0 1-.75-.75V.75a.75.75 0 1 1 1.5 0v2.558A11.874 11.874 0 0 1 12 0c6.617 0 12 5.383 12 12Zm-5.25-3v6.75a.75.75 0 0 1-.486.703l-6 2.25a.76.76 0 0 1-.528 0l-6-2.25a.75.75 0 0 1-.486-.703V9a.75.75 0 0 1 .486-.703l6-2.25a.76.76 0 0 1 .527 0l6 2.25A.75.75 0 0 1 18.75 9ZM8.136 9 12 10.449 15.864 9 12 7.551 8.136 9ZM6.75 15.23l4.5 1.688V11.77l-4.5-1.688v5.148Zm10.5 0v-5.148l-4.5 1.688v5.148l4.5-1.688Z" fill="#FBFDFF"/></svg>