<svg width="24" height="24" fill="none" xmlns="http://www.w3.org/2000/svg"><path d="M12.48 24.48c-.838 0-1.428-.63-1.948-1.183-.246-.263-.583-.622-.77-.672-.208-.055-.678.085-1.056.198-.714.213-1.526.457-2.228.05-.712-.412-.907-1.242-1.078-1.975-.088-.378-.198-.848-.344-.994-.146-.145-.616-.255-.994-.344-.733-.172-1.563-.367-1.975-1.078-.406-.703-.164-1.514.051-2.229.113-.376.253-.845.198-1.054-.05-.188-.41-.525-.672-.77C1.11 13.908.48 13.318.48 12.48c0-.838.63-1.428 1.184-1.948.262-.246.622-.583.672-.77.055-.21-.085-.679-.198-1.056-.215-.715-.457-1.525-.05-2.228.411-.712 1.242-.907 1.975-1.078.377-.089.847-.199.993-.345.146-.145.255-.616.344-.994.172-.732.367-1.563 1.078-1.974.706-.407 1.516-.163 2.229.05.376.113.848.255 1.055.198.187-.05.524-.41.77-.672.52-.554 1.11-1.183 1.948-1.183.839 0 1.429.63 1.949 1.183.246.263.583.622.77.672.208.055.678-.085 1.056-.198.715-.213 1.527-.457 2.228-.05.712.411.907 1.242 1.078 1.975.088.377.198.848.344.993.146.146.616.256.994.345.732.172 1.563.367 1.974 1.078.407.703.165 1.514-.05 2.228-.113.377-.253.846-.198 1.055.05.188.41.525.672.77.554.52 1.183 1.11 1.183 1.949 0 .838-.629 1.428-1.183 1.948-.262.246-.622.583-.672.77-.055.21.085.679.198 1.056.215.715.457 1.525.05 2.228-.411.712-1.242.907-1.975 1.078-.377.089-.847.199-.993.345-.146.145-.256.615-.344.993-.172.733-.367 1.564-1.078 1.975-.706.408-1.516.163-2.229-.05-.377-.113-.848-.256-1.055-.198-.187.05-.524.41-.77.672-.52.554-1.11 1.183-1.949 1.183Zm-2.829-3.366c.168 0 .335.018.499.062.6.16 1.045.635 1.476 1.094.249.265.665.71.854.71.19 0 .606-.445.855-.71.431-.459.876-.933 1.477-1.094.619-.167 1.286.034 1.873.21.316.094.906.274 1.047.189.15-.087.291-.693.368-1.02.146-.62.296-1.264.744-1.711.448-.448 1.091-.599 1.712-.744.349-.082.932-.219 1.02-.37.082-.14-.095-.73-.19-1.046-.176-.588-.376-1.254-.21-1.874.161-.6.636-1.045 1.095-1.476.265-.248.71-.665.71-.854 0-.189-.445-.606-.71-.855-.46-.43-.934-.876-1.095-1.476-.166-.62.034-1.286.21-1.873.095-.317.272-.905.189-1.047-.087-.15-.693-.292-1.019-.369-.62-.146-1.264-.296-1.712-.744-.448-.448-.598-1.09-.744-1.712-.082-.349-.218-.932-.369-1.02-.14-.079-.729.096-1.046.19-.587.176-1.253.377-1.874.21-.6-.16-1.046-.635-1.476-1.094-.249-.266-.666-.71-.855-.71-.189 0-.605.444-.854.71-.431.459-.876.933-1.477 1.094-.619.167-1.286-.034-1.873-.21-.316-.094-.905-.273-1.047-.189-.15.087-.291.693-.368 1.02-.146.62-.296 1.263-.745 1.711-.447.448-1.09.598-1.711.744-.349.082-.933.218-1.02.37-.082.14.095.73.19 1.045.176.589.376 1.254.21 1.875-.161.6-.636 1.045-1.095 1.476-.265.248-.71.665-.71.854 0 .189.445.606.71.855.46.43.934.876 1.094 1.476.167.62-.033 1.286-.209 1.873-.095.316-.272.904-.189 1.047.086.15.693.292 1.019.369.62.145 1.264.296 1.711.744.449.447.599 1.09.745 1.712.082.348.218.932.369 1.02.142.081.73-.095 1.046-.19.432-.13.907-.272 1.375-.272Zm6.538-2.634a.746.746 0 0 1-.345-.084l-3.364-1.744-3.363 1.744a.75.75 0 0 1-1.084-.795l.64-3.677-2.712-2.606a.748.748 0 0 1 .413-1.284l3.758-.538 1.678-3.352c.255-.507 1.087-.507 1.341 0l1.68 3.352 3.756.538A.75.75 0 0 1 19 11.319l-2.712 2.606.64 3.677a.751.751 0 0 1-.74.879Zm-8.08-7.178 1.603 1.54a1.498 1.498 0 0 1 .44 1.339l-.381 2.187 2.02-1.047a1.501 1.501 0 0 1 1.38 0l2.02 1.047-.381-2.186a1.5 1.5 0 0 1 .44-1.34l1.603-1.54-2.236-.32a1.499 1.499 0 0 1-1.128-.814L12.48 8.155l-1.007 2.014a1.498 1.498 0 0 1-1.13.813l-2.234.32Z" fill="#FBFDFF"/></svg>